Coordinates
version=1
nRows=7
nColumns=63
inDegrees=yes

Units are S.I. units (second, meters, Newtons, ...)
If the header above contains a line with 'inDegrees', this indicates whether rotational values are in degrees (yes) or radians (no).

endheader
time	pelvis_tilt	pelvis_list	pelvis_rotation	pelvis_tx	pelvis_ty	pelvis_tz	hip_flexion_r	hip_adduction_r	hip_rotation_r	knee_angle_r	knee_angle_r_beta	ankle_angle_r	subtalar_angle_r	mtp_angle_r	hip_flexion_l	hip_adduction_l	hip_rotation_l	knee_angle_l	knee_angle_l_beta	ankle_angle_l	subtalar_angle_l	mtp_angle_l	L5_S1_Flex_Ext	L5_S1_Lat_Bending	L5_S1_axial_rotation	L4_L5_Flex_Ext	L4_L5_Lat_Bending	L4_L5_axial_rotation	L3_L4_Flex_Ext	L3_L4_Lat_Bending	L3_L4_axial_rotation	L2_L3_Flex_Ext	L2_L3_Lat_Bending	L2_L3_axial_rotation	L1_L2_Flex_Ext	L1_L2_Lat_Bending	L1_L2_axial_rotation	L1_T12_Flex_Ext	L1_T12_Lat_Bending	L1_T12_axial_rotation	Abs_r3	Abs_r2	Abs_r1	Abs_t1	Abs_t2	neck_flexion	neck_bending	neck_rotation	arm_flex_r	arm_add_r	arm_rot_r	elbow_flex_r	pro_sup_r	wrist_flex_r	wrist_dev_r	arm_flex_l	arm_add_l	arm_rot_l	elbow_flex_l	pro_sup_l	wrist_flex_l	wrist_dev_l
      0.00000000	     -3.16593360	     -4.34293960	     96.20463752	      0.09469088	      0.99362201	      0.52474537	      1.81475796	     -4.06312367	      0.20463606	      5.94284795	      0.10372226	     26.52501002	      7.39608896	      0.00000000	      2.45686248	      2.21377025	     -4.21669750	      7.85580353	      0.13710964	     25.94120206	      7.84917150	      0.00000000	      0.17294685	     -0.59036477	      2.08245617	      0.32117959	     -0.78518514	      2.21260968	      0.28413438	     -1.43541290	      2.21260968	      0.19766095	     -1.43541290	      1.82214915	      0.16059844	     -1.20387184	      1.69199564	      0.09882183	     -0.91447503	      1.56184213	      1.23534205	     -6.67832433	     11.58199647	      0.00000000	      0.00000000	     27.79050531	      0.44444249	     -7.41097332	      9.49295307	    -16.16852102	     48.42259107	     68.01696206	     58.87287628	      3.68325836	      2.31529901	     29.29964299	    -16.40188900	     87.67442325	     64.14529899	     51.98686516	     10.98616609	     -6.00729308
      0.01666667	     -3.03743590	     -4.37050652	     95.45288297	      0.09480457	      0.99298807	      0.52328070	      1.81731394	     -4.03645015	      0.45439862	      6.36077005	      0.11101638	     26.55185405	      7.09431327	      0.00000000	      2.26105000	      2.13659437	     -4.27521109	      7.99576070	      0.13955235	     25.34099242	      7.27712228	      0.00000000	      0.20107421	     -0.54119765	      2.07035273	      0.37341492	     -0.71979287	      2.19974977	      0.33034482	     -1.31586797	      2.19974977	      0.22980772	     -1.31586797	      1.81155864	      0.18671751	     -1.10361025	      1.68216159	      0.11489380	     -0.83831516	      1.55276455	      1.43625298	     -6.12213605	     11.51468077	      0.00000000	      0.00000000	     27.77574987	     -0.56820621	     -5.66530580	      8.73576663	    -16.52328223	     49.60458195	     67.88648618	     59.83840159	      4.38679213	      2.21831337	     29.05791291	    -16.71561654	     87.14731934	     64.39644663	     51.60686924	     11.06720232	     -6.19592459
      0.03333333	     -2.91385494	     -4.26245263	     94.70093436	      0.09509444	      0.99265790	      0.52206337	      1.72477761	     -3.94995353	      1.08220995	      6.61665597	      0.11548243	     26.69199053	      6.59958425	      0.00000000	      1.90105515	      2.07925162	     -3.87086544	      7.86946391	      0.13734806	     25.05352420	      6.14932004	      0.00000000	      0.20464691	     -0.49673123	      2.07998416	      0.38004977	     -0.66065254	      2.20998317	      0.33621440	     -1.20775231	      2.20998317	      0.23389095	     -1.20775231	      1.81998614	      0.19003512	     -1.01293433	      1.68998713	      0.11693524	     -0.76943668	      1.55998812	      1.46177239	     -5.61912303	     11.56824789	      0.00000000	      0.00000000	     27.78492716	     -0.96200398	     -3.98425627	      8.26916853	    -16.68826282	     50.31238808	     67.62705721	     60.58712970	      4.96410126	      2.17483245	     28.09174106	    -17.07402506	     85.58847509	     64.58401808	     51.37384791	     11.23209548	     -6.03287692
      0.05000000	     -2.80457783	     -4.16972320	     94.37842820	      0.09479192	      0.99233614	      0.52050140	      1.24789148	     -3.68862446	      4.62429808	      6.04028455	      0.10542285	     25.92733921	      1.81823384	      0.00000000	      1.22431179	      2.42236174	      2.09100022	      6.82934951	      0.11919463	     23.40676672	     -2.30070338	      0.00000000	      0.21458506	     -0.46691583	      2.04962990	      0.39850592	     -0.62099806	      2.17773177	      0.35254180	     -1.13525916	      2.17773177	      0.24524927	     -1.13525916	      1.79342616	      0.19926369	     -0.95213477	      1.66532430	      0.12261390	     -0.72325262	      1.53722243	      1.53275963	     -5.28184528	     11.39942662	      0.00000000	      0.00000000	     27.77240589	     -0.99770757	     -3.05266681	      7.99491890	    -16.82385625	     50.95211001	     67.52066336	     60.33518444	      5.09151371	      2.41684024	     26.55158124	    -17.38137852	     82.69073801	     64.64091193	     54.85559251	     12.73422107	     -4.61084323
      0.06666667	     -2.80729055	     -4.13618081	     94.28061948	      0.09476261	      0.99209962	      0.52009660	      1.15673225	     -3.68983900	      4.56872437	      5.99232236	      0.10458576	     26.27297573	      1.71299252	      0.00000000	      1.17302441	      2.43087505	      2.17500261	      6.79465945	      0.11858918	     23.69942525	     -2.31329515	      0.00000000	      0.21314367	     -0.46422988	      2.07589064	      0.39582911	     -0.61742574	      2.20563381	      0.35017374	     -1.12872853	      2.20563381	      0.24360190	     -1.12872853	      1.81640431	      0.19792521	     -0.94665757	      1.68666115	      0.12179029	     -0.71909208	      1.55691798	      1.52246392	     -5.25146123	     11.54548098	      0.00000000	      0.00000000	     27.80697730	     -1.05366322	     -3.02952285	      7.78134603	    -16.81095328	     50.98197561	     67.32230686	     60.28568973	      5.04139647	      2.46503994	     26.22024049	    -17.46557899	     82.64435981	     64.61549700	     54.89437164	     12.73485925	     -4.62237578
      0.08333333	     -2.74407002	     -4.02067838	     93.56572176	      0.09529185	      0.99176447	      0.51918006	      1.16392297	     -3.64489864	      5.13124171	      6.12299416	      0.10686641	     26.81013595	      2.10094336	      0.00000000	      0.72302865	      2.40410142	      2.32272984	      6.17974343	      0.10785687	     24.04683605	     -2.98657604	      0.00000000	      0.20920321	     -0.43883318	      2.14533710	      0.38851127	     -0.58364813	      2.27942067	      0.34369995	     -1.06697899	      2.27942067	      0.23909834	     -1.06697899	      1.87716996	      0.19426610	     -0.89486862	      1.74308639	      0.11953871	     -0.67975259	      1.60900282	      1.49431758	     -4.96416869	     11.93172134	      0.00000000	      0.00000000	     27.77275643	     -1.35643160	     -2.19775206	      7.67922612	    -16.79511621	     51.11492925	     67.54963207	     57.35028584	      4.36464363	      3.77006931	     23.70273194	    -17.65776347	     78.03149615	     64.65625995	     60.74686155	     14.16094947	     -3.34580553
      0.10000000	     -2.73950019	     -4.03638681	     93.58877423	      0.09505119	      0.99133072	      0.51891400	      1.13769933	     -3.67996227	      4.63118690	      6.13003138	      0.10698923	     27.21206998	      2.70069389	      0.00000000	      0.70839244	      2.44893939	      3.37728948	      6.02451935	      0.10514770	     24.20651880	     -4.07029898	      0.00000000	      0.21550931	     -0.43546933	      2.12772692	      0.40022234	     -0.57917421	      2.26070986	      0.35406024	     -1.05880014	      2.26070986	      0.24630559	     -1.05880014	      1.86176106	      0.20012194	     -0.88800906	      1.72877813	      0.12314202	     -0.67454200	      1.59579519	      1.53936144	     -4.92611619	     11.83377883	      0.00000000	      0.00000000	     27.77798783	     -1.43243307	     -2.08578184	      7.76543510	    -16.72549422	     51.54360175	     67.39460894	     55.47627250	      3.75621724	      3.58202350	     22.43176788	    -17.66125065	     76.01038758	     64.46718013	     64.72741661	     15.13881548	     -3.56239769
